<svg width="1600" height="500" viewBox="0 0 1600 500" xmlns="http://www.w3.org/2000/svg" role="img" aria-labelledby="title desc">
  <title id="title">KG Sidecar Banner</title>
  <desc id="desc">Minimal engineering banner for KG Sidecar with Neo4j focus</desc>
  <defs>
    <linearGradient id="bg" x1="0" y1="0" x2="1" y2="1">
      <stop offset="0%" stop-color="#f8fafc" />
      <stop offset="100%" stop-color="#edf2f7" />
    </linearGradient>
    <linearGradient id="accent" x1="0" y1="0" x2="1" y2="1">
      <stop offset="0%" stop-color="#0284c7" />
      <stop offset="100%" stop-color="#0d9488" />
    </linearGradient>
    <radialGradient id="glow" cx="80%" cy="20%" r="80%">
      <stop offset="0%" stop-color="#22d3ee" stop-opacity="0.12" />
      <stop offset="100%" stop-color="#22d3ee" stop-opacity="0" />
    </radialGradient>
    <pattern id="grid" width="40" height="40" patternUnits="userSpaceOnUse">
      <path d="M 40 0 L 0 0 0 40" fill="none" stroke="#cbd5e1" stroke-width="1" />
    </pattern>
    <filter id="softBlur" x="-30%" y="-30%" width="160%" height="160%">
      <feGaussianBlur stdDeviation="8" />
    </filter>
  </defs>

  <rect width="1600" height="500" fill="url(#bg)" />
  <rect width="1600" height="500" fill="url(#grid)" opacity="0.45" />
  <rect width="1600" height="500" fill="url(#glow)" />

  <g>
    <rect x="112" y="132" width="6" height="236" rx="3" fill="url(#accent)" />
    <text x="150" y="220" font-family="Space Grotesk, Segoe UI, Arial, sans-serif" font-size="96" font-weight="700" fill="#0f172a">KG Sidecar</text>
    <text x="154" y="264" font-family="Segoe UI, Arial, sans-serif" font-size="24" fill="#334155">Neo4j-Driven Semantic Knowledge Graph</text>

    <g font-family="Segoe UI, Arial, sans-serif" font-size="17" fill="#0f172a">
      <rect x="154" y="304" width="180" height="34" rx="17" fill="#ffffff" stroke="#cbd5e1" />
      <text x="244" y="321" text-anchor="middle" dominant-baseline="middle">Strong Consistency</text>
      <rect x="346" y="304" width="134" height="34" rx="17" fill="#ffffff" stroke="#cbd5e1" />
      <text x="413" y="321" text-anchor="middle" dominant-baseline="middle">Rollback Safe</text>
      <text x="154" y="374" font-size="20" fill="#0f172a">Neo4j Native Storage</text>
    </g>
  </g>

  <g transform="translate(910,72)">
    <path d="M 120 88 L 278 56 L 452 120 L 540 228 L 430 314 L 260 334 L 96 264 Z" fill="none" stroke="#94a3b8" stroke-width="1.5" opacity="0.65" />
    <g stroke="url(#accent)" stroke-width="2.8" fill="none" stroke-linecap="round">
      <path d="M 104 94 L 274 58 L 454 122 L 540 228 L 430 314 L 260 334 L 96 264 L 104 94" />
      <path d="M 274 58 L 260 334" opacity="0.72" />
      <path d="M 104 94 L 430 314" opacity="0.54" />
      <path d="M 96 264 L 454 122" opacity="0.46" />
    </g>

    <g fill="#ffffff" stroke="#0f766e" stroke-width="2">
      <circle cx="104" cy="94" r="10" />
      <circle cx="274" cy="58" r="12" />
      <circle cx="454" cy="122" r="12" />
      <circle cx="540" cy="228" r="10" />
      <circle cx="430" cy="314" r="12" />
      <circle cx="260" cy="334" r="10" />
      <circle cx="96" cy="264" r="9" />
    </g>

    <circle cx="430" cy="314" r="30" fill="#22d3ee" opacity="0.15" filter="url(#softBlur)" />
    <circle cx="274" cy="58" r="30" fill="#0ea5e9" opacity="0.12" filter="url(#softBlur)" />
  </g>
</svg>
